<svg xmlns="http://www.w3.org/2000/svg" viewBox="0 0 256 257">
  <defs>
    <linearGradient id="a" x1="6.001%" x2="235.806%" y1="12.959%" y2="78.829%">
      <stop offset="0%" stop-color="#41D1FF"/>
      <stop offset="100%" stop-color="#BD34FE"/>
    </linearGradient>
    <linearGradient id="b" x1="194.651%" x2="13.152%" y1="2.818%" y2="100%">
      <stop offset="0%" stop-color="#FFEA83"/>
      <stop offset="8.333%" stop-color="#FFDD35"/>
      <stop offset="100%" stop-color="#FFA800"/>
    </linearGradient>
  </defs>
  <path fill="url(#a)" d="M255.153 37.938L134.897 252.173a8.14 8.14 0 0 1-14.143 0L.588 37.938A8.14 8.14 0 0 1 8.02 25.52l120.257 21.509a8.14 8.14 0 0 0 2.866 0L247.7 25.52a8.14 8.14 0 0 1 7.453 12.418Z"/>
  <path fill="url(#b)" d="M185.432 0L96.44 17.353a4.07 4.07 0 0 0-3.302 4.652l10.782 66.058a4.07 4.07 0 0 0 5.11 3.23l24.743-7.467a4.07 4.07 0 0 1 5.043 4.95l-7.351 35.893a4.07 4.07 0 0 0 5.781 4.51l15.282-7.31a4.07 4.07 0 0 1 5.427 5.286l-11.68 29.655c-1.532 3.89 3.65 7.328 6.841 4.54l2.13-1.86 72.514-144.715c1.215-2.425-.873-5.245-3.57-4.788L185.432 0Z"/>
</svg>
